<svg width="9" height="7" viewBox="0 0 9 7" fill="none" xmlns="http://www.w3.org/2000/svg">
<path d="M3.377 4.94375L7.26138 1.05938C7.35304 0.967708 7.45999 0.921875 7.58221 0.921875C7.70443 0.921875 7.81138 0.967708 7.90304 1.05938C7.99471 1.15104 8.04054 1.25997 8.04054 1.38617C8.04054 1.51236 7.99471 1.62114 7.90304 1.7125L3.69784 5.92917C3.60617 6.02083 3.49923 6.06667 3.377 6.06667C3.25478 6.06667 3.14784 6.02083 3.05617 5.92917L1.08534 3.95833C0.99367 3.86667 0.94967 3.75789 0.953337 3.632C0.957003 3.50611 1.00482 3.39718 1.09679 3.30521C1.18877 3.21324 1.2977 3.1674 1.42359 3.16771C1.54948 3.16801 1.65825 3.21385 1.74992 3.30521L3.377 4.94375Z" fill="white"/>
</svg>
